<svg xmlns="http://www.w3.org/2000/svg" xmlns:xlink="http://www.w3.org/1999/xlink" width="179" zoomAndPan="magnify" viewBox="0 0 134.25 30.750001" height="41" preserveAspectRatio="xMidYMid meet" version="1.0"><defs><clipPath id="3c7a5eecde"><path d="M 0.167969 0 L 29.925781 0 L 29.925781 30.503906 L 0.167969 30.503906 Z M 0.167969 0 " clip-rule="nonzero"/></clipPath></defs><g clip-path="url(#3c7a5eecde)"><path fill="#c7231a" d="M 10.371094 0.382812 C 8.695312 0.382812 7.085938 1.050781 5.898438 2.238281 L 0.167969 7.964844 L 0.167969 10.585938 C 0.167969 12.441406 0.964844 14.105469 2.234375 15.261719 C 1.574219 15.863281 1.066406 16.570312 0.707031 17.382812 C 0.347656 18.195312 0.167969 19.050781 0.167969 19.9375 L 0.167969 22.5625 L 5.898438 28.289062 C 6.199219 28.589844 6.527344 28.859375 6.886719 29.09375 C 7.242188 29.332031 7.621094 29.527344 8.015625 29.6875 C 8.414062 29.847656 8.824219 29.964844 9.246094 30.039062 C 9.664062 30.117188 10.089844 30.148438 10.519531 30.140625 C 10.945312 30.128906 11.367188 30.078125 11.785156 29.984375 C 12.203125 29.886719 12.605469 29.75 12.996094 29.574219 C 13.382812 29.394531 13.75 29.183594 14.097656 28.929688 C 14.441406 28.679688 14.761719 28.394531 15.046875 28.078125 C 15.335938 28.394531 15.652344 28.679688 16 28.929688 C 16.34375 29.179688 16.714844 29.394531 17.101562 29.574219 C 17.492188 29.75 17.894531 29.886719 18.3125 29.980469 C 18.730469 30.078125 19.152344 30.128906 19.578125 30.140625 C 20.007812 30.148438 20.429688 30.117188 20.851562 30.039062 C 21.273438 29.964844 21.683594 29.847656 22.078125 29.6875 C 22.476562 29.527344 22.851562 29.332031 23.210938 29.09375 C 23.566406 28.859375 23.898438 28.589844 24.199219 28.289062 L 29.925781 22.5625 L 29.925781 19.9375 C 29.925781 18.085938 29.132812 16.421875 27.863281 15.261719 C 28.523438 14.664062 29.03125 13.957031 29.390625 13.144531 C 29.75 12.328125 29.929688 11.476562 29.925781 10.585938 L 29.925781 7.964844 L 24.199219 2.238281 C 23.898438 1.933594 23.566406 1.664062 23.210938 1.429688 C 22.851562 1.195312 22.476562 0.996094 22.078125 0.839844 C 21.683594 0.679688 21.273438 0.5625 20.851562 0.484375 C 20.429688 0.410156 20.007812 0.375 19.578125 0.386719 C 19.152344 0.394531 18.730469 0.449219 18.3125 0.542969 C 17.894531 0.640625 17.492188 0.773438 17.101562 0.953125 C 16.714844 1.128906 16.34375 1.34375 16 1.597656 C 15.652344 1.847656 15.335938 2.132812 15.046875 2.449219 C 14.449219 1.789062 13.742188 1.28125 12.929688 0.921875 C 12.113281 0.5625 11.261719 0.382812 10.371094 0.382812 Z M 19.332031 15.261719 C 19.261719 15.199219 19.191406 15.128906 19.121094 15.0625 L 15.046875 10.988281 L 10.972656 15.0625 C 10.90625 15.132812 10.835938 15.199219 10.765625 15.261719 C 10.835938 15.328125 10.90625 15.394531 10.972656 15.464844 L 15.046875 19.539062 L 19.121094 15.464844 C 19.191406 15.394531 19.261719 15.328125 19.332031 15.261719 Z M 16.703125 22.5625 L 16.703125 23.8125 C 16.703125 24.421875 16.871094 24.984375 17.210938 25.492188 C 17.550781 26 18.003906 26.371094 18.566406 26.605469 C 19.132812 26.839844 19.714844 26.898438 20.3125 26.777344 C 20.914062 26.660156 21.429688 26.382812 21.863281 25.949219 L 26.621094 21.191406 L 26.621094 19.9375 C 26.621094 19.328125 26.453125 18.769531 26.113281 18.257812 C 25.773438 17.75 25.320312 17.378906 24.753906 17.144531 C 24.191406 16.910156 23.609375 16.855469 23.007812 16.972656 C 22.410156 17.09375 21.894531 17.367188 21.460938 17.800781 Z M 13.394531 22.5625 L 8.636719 17.800781 C 8.203125 17.367188 7.6875 17.09375 7.089844 16.972656 C 6.488281 16.855469 5.90625 16.910156 5.339844 17.144531 C 4.777344 17.378906 4.324219 17.75 3.984375 18.257812 C 3.644531 18.765625 3.476562 19.328125 3.476562 19.9375 L 3.476562 21.191406 L 8.234375 25.949219 C 8.667969 26.382812 9.183594 26.660156 9.78125 26.777344 C 10.382812 26.898438 10.964844 26.839844 11.527344 26.605469 C 12.09375 26.371094 12.546875 26 12.886719 25.492188 C 13.226562 24.984375 13.394531 24.425781 13.394531 23.8125 Z M 13.394531 6.714844 L 13.394531 7.964844 L 8.636719 12.722656 C 8.203125 13.15625 7.6875 13.433594 7.089844 13.550781 C 6.488281 13.671875 5.90625 13.613281 5.339844 13.378906 C 4.777344 13.148438 4.324219 12.777344 3.984375 12.265625 C 3.644531 11.757812 3.476562 11.199219 3.476562 10.585938 L 3.476562 9.335938 L 8.234375 4.574219 C 8.667969 4.144531 9.183594 3.867188 9.78125 3.75 C 10.382812 3.628906 10.964844 3.6875 11.527344 3.921875 C 12.09375 4.152344 12.546875 4.523438 12.886719 5.035156 C 13.226562 5.542969 13.394531 6.101562 13.394531 6.714844 Z M 21.460938 12.722656 L 16.703125 7.964844 L 16.703125 6.714844 C 16.703125 6.101562 16.871094 5.542969 17.210938 5.035156 C 17.550781 4.527344 18.003906 4.15625 18.566406 3.921875 C 19.132812 3.6875 19.714844 3.628906 20.3125 3.75 C 20.914062 3.867188 21.429688 4.144531 21.863281 4.574219 L 26.621094 9.335938 L 26.621094 10.585938 C 26.621094 11.199219 26.453125 11.757812 26.113281 12.265625 C 25.773438 12.777344 25.320312 13.148438 24.753906 13.378906 C 24.191406 13.613281 23.609375 13.671875 23.007812 13.550781 C 22.410156 13.433594 21.894531 13.15625 21.460938 12.722656 Z M 21.460938 12.722656 " fill-opacity="1" fill-rule="evenodd"/></g><path fill="#ffffff" d="M 40.578125 21.574219 L 40.578125 9.078125 L 49.121094 9.078125 L 49.121094 11.378906 L 43.222656 11.378906 L 43.222656 14.058594 L 48.222656 14.058594 L 48.222656 16.191406 L 43.222656 16.191406 L 43.222656 19.246094 L 49.195312 19.246094 L 49.195312 21.574219 Z M 50.117188 21.59375 L 53.363281 17.101562 L 50.285156 12.558594 L 53.578125 12.558594 L 55.175781 15.296875 L 56.730469 12.558594 L 59.945312 12.558594 L 56.953125 17.046875 L 60.175781 21.574219 L 56.835938 21.574219 L 55.085938 18.824219 L 53.3125 21.546875 Z M 65.210938 21.84375 C 64.25 21.84375 63.488281 21.570312 62.925781 21.03125 C 62.375 20.484375 62.097656 19.65625 62.097656 18.558594 L 62.097656 9.960938 L 64.703125 9.960938 L 64.703125 12.558594 L 66.945312 12.558594 L 66.945312 14.648438 L 64.703125 14.648438 L 64.703125 18.082031 C 64.703125 18.613281 64.8125 18.984375 65.035156 19.199219 C 65.253906 19.414062 65.546875 19.519531 65.917969 19.519531 C 66.109375 19.519531 66.292969 19.5 66.472656 19.457031 C 66.65625 19.410156 66.824219 19.347656 66.980469 19.261719 L 67.347656 21.316406 C 67.078125 21.464844 66.757812 21.589844 66.382812 21.691406 C 66 21.792969 65.609375 21.84375 65.210938 21.84375 Z M 60.265625 14.648438 L 60.265625 12.558594 L 62.355469 12.558594 L 62.355469 14.648438 Z M 73.007812 21.84375 C 72.027344 21.84375 71.164062 21.644531 70.417969 21.246094 C 69.679688 20.855469 69.097656 20.296875 68.675781 19.574219 C 68.261719 18.859375 68.050781 18.023438 68.050781 17.066406 C 68.050781 16.371094 68.171875 15.730469 68.410156 15.148438 C 68.644531 14.574219 68.984375 14.070312 69.425781 13.636719 C 69.875 13.203125 70.390625 12.875 70.972656 12.648438 C 71.566406 12.410156 72.21875 12.289062 72.925781 12.289062 C 73.707031 12.289062 74.398438 12.425781 75 12.699219 C 75.59375 12.964844 76.097656 13.347656 76.507812 13.851562 C 76.90625 14.339844 77.183594 14.914062 77.335938 15.574219 C 77.496094 16.234375 77.511719 16.953125 77.382812 17.726562 L 70.472656 17.726562 C 70.472656 18.144531 70.578125 18.507812 70.792969 18.816406 C 71.011719 19.125 71.320312 19.371094 71.714844 19.546875 C 72.113281 19.71875 72.574219 19.808594 73.105469 19.808594 C 73.628906 19.808594 74.128906 19.734375 74.605469 19.59375 C 75.089844 19.445312 75.539062 19.230469 75.953125 18.941406 L 76.820312 20.726562 C 76.535156 20.945312 76.175781 21.144531 75.75 21.316406 C 75.320312 21.480469 74.863281 21.609375 74.382812 21.699219 C 73.929688 21.792969 73.46875 21.839844 73.007812 21.84375 Z M 70.625 15.933594 L 74.882812 15.933594 C 74.863281 15.402344 74.675781 14.984375 74.320312 14.671875 C 73.96875 14.363281 73.484375 14.210938 72.863281 14.210938 C 72.246094 14.210938 71.730469 14.363281 71.320312 14.671875 C 70.914062 14.984375 70.683594 15.402344 70.625 15.933594 Z M 78.902344 21.574219 L 78.902344 12.558594 L 81.507812 12.558594 L 81.507812 13.574219 C 81.855469 13.125 82.261719 12.796875 82.730469 12.59375 C 83.207031 12.390625 83.703125 12.289062 84.222656 12.289062 C 85.0625 12.289062 85.753906 12.457031 86.292969 12.789062 C 86.839844 13.117188 87.246094 13.542969 87.507812 14.066406 C 87.777344 14.589844 87.910156 15.140625 87.910156 15.71875 L 87.910156 21.574219 L 85.300781 21.574219 L 85.300781 16.53125 C 85.300781 15.960938 85.140625 15.503906 84.820312 15.164062 C 84.503906 14.824219 84.046875 14.65625 83.445312 14.65625 C 83.066406 14.65625 82.730469 14.742188 82.4375 14.914062 C 82.144531 15.082031 81.917969 15.316406 81.75 15.621094 C 81.589844 15.921875 81.507812 16.273438 81.507812 16.671875 L 81.507812 21.574219 Z M 93.253906 21.832031 C 92.449219 21.832031 91.707031 21.730469 91.03125 21.519531 C 90.351562 21.308594 89.769531 21.015625 89.289062 20.644531 L 90.136719 18.824219 C 90.609375 19.148438 91.121094 19.402344 91.664062 19.582031 C 92.210938 19.761719 92.738281 19.851562 93.242188 19.851562 C 93.742188 19.851562 94.128906 19.777344 94.394531 19.628906 C 94.667969 19.472656 94.804688 19.253906 94.804688 18.96875 C 94.804688 18.710938 94.683594 18.523438 94.441406 18.40625 C 94.203125 18.28125 93.738281 18.144531 93.046875 18.003906 C 91.855469 17.789062 90.988281 17.453125 90.441406 16.996094 C 89.894531 16.53125 89.617188 15.894531 89.617188 15.085938 C 89.617188 14.511719 89.777344 14.011719 90.09375 13.574219 C 90.414062 13.140625 90.855469 12.804688 91.414062 12.566406 C 91.972656 12.324219 92.617188 12.199219 93.34375 12.199219 C 94.054688 12.199219 94.730469 12.300781 95.359375 12.496094 C 95.996094 12.6875 96.539062 12.953125 96.992188 13.300781 L 96.171875 15.128906 C 95.917969 14.929688 95.644531 14.761719 95.351562 14.628906 C 95.042969 14.484375 94.71875 14.375 94.386719 14.296875 C 94.0625 14.214844 93.738281 14.175781 93.40625 14.171875 C 92.96875 14.171875 92.617188 14.25 92.351562 14.398438 C 92.082031 14.539062 91.949219 14.742188 91.949219 15.003906 C 91.949219 15.265625 92.070312 15.460938 92.316406 15.585938 C 92.558594 15.710938 93.015625 15.847656 93.679688 15.996094 C 94.925781 16.257812 95.808594 16.605469 96.332031 17.039062 C 96.863281 17.46875 97.128906 18.070312 97.128906 18.851562 C 97.128906 19.453125 96.964844 19.976562 96.636719 20.421875 C 96.316406 20.871094 95.863281 21.21875 95.277344 21.46875 C 94.703125 21.710938 94.027344 21.832031 93.253906 21.832031 Z M 98.765625 21.574219 L 98.765625 12.558594 L 101.375 12.558594 L 101.375 21.574219 Z M 100.070312 11.128906 C 99.644531 11.136719 99.269531 11.003906 98.945312 10.726562 C 98.628906 10.453125 98.472656 10.089844 98.472656 9.636719 C 98.472656 9.179688 98.628906 8.816406 98.945312 8.550781 C 99.269531 8.265625 99.644531 8.128906 100.070312 8.140625 C 100.5 8.128906 100.875 8.265625 101.195312 8.550781 C 101.511719 8.816406 101.667969 9.179688 101.667969 9.636719 C 101.667969 10.089844 101.511719 10.453125 101.195312 10.726562 C 100.871094 11.003906 100.496094 11.136719 100.070312 11.128906 Z M 107.78125 21.84375 C 106.808594 21.84375 105.949219 21.625 105.199219 21.191406 C 104.457031 20.769531 103.867188 20.191406 103.433594 19.457031 C 103 18.71875 102.789062 17.921875 102.796875 17.066406 C 102.796875 16.429688 102.921875 15.824219 103.164062 15.253906 C 103.40625 14.675781 103.753906 14.167969 104.199219 13.726562 C 104.644531 13.28125 105.171875 12.929688 105.78125 12.675781 C 106.386719 12.417969 107.054688 12.289062 107.78125 12.289062 C 108.75 12.289062 109.605469 12.507812 110.351562 12.941406 C 111.09375 13.363281 111.679688 13.945312 112.109375 14.683594 C 112.539062 15.402344 112.753906 16.199219 112.753906 17.066406 C 112.753906 17.695312 112.628906 18.300781 112.386719 18.878906 C 112.140625 19.457031 111.796875 19.96875 111.351562 20.414062 C 110.894531 20.867188 110.371094 21.214844 109.78125 21.457031 C 109.171875 21.714844 108.503906 21.84375 107.78125 21.84375 Z M 107.78125 19.582031 C 108.238281 19.582031 108.648438 19.484375 109.011719 19.28125 C 109.375 19.070312 109.660156 18.78125 109.867188 18.40625 C 110.078125 18.023438 110.179688 17.578125 110.179688 17.066406 C 110.179688 16.546875 110.078125 16.101562 109.867188 15.726562 C 109.671875 15.355469 109.390625 15.066406 109.019531 14.859375 C 108.65625 14.652344 108.242188 14.546875 107.78125 14.546875 C 107.316406 14.546875 106.898438 14.652344 106.53125 14.859375 C 106.167969 15.0625 105.882812 15.351562 105.671875 15.726562 C 105.46875 16.101562 105.371094 16.546875 105.371094 17.066406 C 105.371094 17.585938 105.472656 18.03125 105.683594 18.40625 C 105.890625 18.78125 106.175781 19.070312 106.539062 19.28125 C 106.902344 19.484375 107.316406 19.582031 107.78125 19.582031 Z M 114.167969 21.574219 L 114.167969 12.558594 L 116.777344 12.558594 L 116.777344 13.574219 C 117.121094 13.125 117.527344 12.796875 118 12.59375 C 118.476562 12.390625 118.972656 12.289062 119.488281 12.289062 C 120.328125 12.289062 121.019531 12.457031 121.5625 12.789062 C 122.109375 13.117188 122.511719 13.542969 122.773438 14.066406 C 123.042969 14.589844 123.175781 15.140625 123.175781 15.71875 L 123.175781 21.574219 L 120.570312 21.574219 L 120.570312 16.53125 C 120.570312 15.960938 120.410156 15.503906 120.085938 15.164062 C 119.773438 14.824219 119.3125 14.65625 118.710938 14.65625 C 118.332031 14.65625 117.996094 14.742188 117.703125 14.914062 C 117.414062 15.082031 117.183594 15.316406 117.015625 15.621094 C 116.855469 15.921875 116.777344 16.273438 116.777344 16.671875 L 116.777344 21.574219 Z M 128.519531 21.832031 C 127.71875 21.832031 126.976562 21.730469 126.296875 21.519531 C 125.617188 21.308594 125.039062 21.015625 124.554688 20.644531 L 125.40625 18.824219 C 125.878906 19.148438 126.386719 19.402344 126.929688 19.582031 C 127.480469 19.761719 128.003906 19.851562 128.511719 19.851562 C 129.011719 19.851562 129.394531 19.777344 129.664062 19.628906 C 129.9375 19.472656 130.074219 19.253906 130.074219 18.96875 C 130.074219 18.710938 129.953125 18.523438 129.707031 18.40625 C 129.46875 18.28125 129.003906 18.144531 128.316406 18.003906 C 127.125 17.789062 126.253906 17.453125 125.707031 16.996094 C 125.160156 16.53125 124.886719 15.894531 124.886719 15.085938 C 124.886719 14.511719 125.042969 14.011719 125.359375 13.574219 C 125.679688 13.140625 126.121094 12.804688 126.679688 12.566406 C 127.242188 12.324219 127.882812 12.199219 128.609375 12.199219 C 129.324219 12.199219 129.996094 12.300781 130.628906 12.496094 C 131.265625 12.6875 131.808594 12.953125 132.261719 13.300781 L 131.441406 15.128906 C 131.1875 14.929688 130.914062 14.761719 130.617188 14.628906 C 130.308594 14.484375 129.988281 14.375 129.652344 14.296875 C 129.332031 14.214844 129.003906 14.175781 128.671875 14.171875 C 128.238281 14.171875 127.886719 14.25 127.617188 14.398438 C 127.351562 14.539062 127.21875 14.742188 127.21875 15.003906 C 127.21875 15.265625 127.339844 15.460938 127.582031 15.585938 C 127.828125 15.710938 128.28125 15.847656 128.949219 15.996094 C 130.191406 16.257812 131.078125 16.605469 131.601562 17.039062 C 132.128906 17.46875 132.394531 18.070312 132.394531 18.851562 C 132.394531 19.453125 132.230469 19.976562 131.902344 20.421875 C 131.582031 20.871094 131.128906 21.21875 130.546875 21.46875 C 129.96875 21.710938 129.292969 21.832031 128.519531 21.832031 Z M 128.519531 21.832031 " fill-opacity="1" fill-rule="nonzero"/></svg>